<svg width="166" height="50" viewBox="0 0 166 50" fill="none" xmlns="http://www.w3.org/2000/svg">
<path d="M24.2929 24.1523C23.3515 22.8613 22.3564 21.799 22.3564 19.3918V11.4038C22.3564 8.00147 22.5985 4.89501 20.0972 2.55509C18.1338 0.672386 14.8659 0 12.3646 0C7.48307 0 2.02324 1.82891 0.880176 7.86699C0.759145 8.49904 1.22982 8.83524 1.6467 8.94282L6.62241 9.48073C7.09308 9.45384 7.42928 8.9966 7.52342 8.53938C7.95375 6.45496 9.68852 5.44638 11.6519 5.44638C12.7143 5.44638 13.9111 5.84981 14.5297 6.77771C15.2559 7.84009 15.1618 9.27901 15.1618 10.5028V11.1752C12.1764 11.4979 8.28994 11.7265 5.49279 12.9503C3.82918 13.6177 2.41141 14.7811 1.43216 16.2824C0.452914 17.7838 -0.0403138 19.5503 0.0195129 21.3417C0.0195129 26.6805 3.38148 29.3432 7.71169 29.3432C11.3695 29.3432 13.3598 28.4826 16.1838 25.6182C17.1117 26.9629 17.4076 27.6353 19.1155 29.0474C19.3072 29.1498 19.5254 29.1919 19.7415 29.1679C19.9575 29.1438 20.1612 29.0549 20.3258 28.9129L24.2794 25.524C24.7098 25.1744 24.6291 24.623 24.2929 24.1523ZM15.1483 16.3929C15.1483 18.4101 15.2021 20.0642 14.207 21.8528C13.3867 23.2917 12.0822 24.1792 10.6433 24.1792C8.66648 24.1792 7.52342 22.6731 7.52342 20.4542C7.52342 16.0836 11.4367 15.2902 15.1618 15.2902L15.1483 16.3929ZM91.6263 24.1523C90.6849 22.8613 89.6898 21.799 89.6898 19.3918V11.4038C89.6898 8.00147 89.9319 4.89501 87.4306 2.55509C85.4537 0.672386 82.1859 0 79.6981 0C74.803 0 69.3432 1.82891 68.2136 7.86699C68.0791 8.49904 68.5632 8.84869 68.9801 8.94282L73.9558 9.48073C74.413 9.45384 74.7627 8.9966 74.8434 8.53938C75.2737 6.45496 77.0219 5.44638 78.9719 5.44638C80.0342 5.44638 81.2311 5.84981 81.8497 6.77771C82.5759 7.84009 82.4818 9.27901 82.4818 10.5028V11.1752C79.5098 11.5114 75.6099 11.7265 72.8262 12.9503C71.1589 13.6139 69.7372 14.776 68.7552 16.2779C67.7731 17.7798 67.2787 19.5483 67.3395 21.3417C67.3395 26.6805 70.7014 29.3432 75.0316 29.3432C78.6895 29.3432 80.6797 28.4826 83.5038 25.6182C84.4317 26.9629 84.741 27.6353 86.4489 29.0474C86.6401 29.1517 86.8587 29.1948 87.0752 29.1707C87.2917 29.1467 87.4956 29.0567 87.6592 28.9129V28.9263C88.6947 28.0119 90.5639 26.3981 91.6128 25.524C92.0163 25.1744 91.9759 24.623 91.6263 24.1523ZM81.527 21.8528C80.7066 23.2917 79.4022 24.1792 77.9633 24.1792C75.9864 24.1792 74.8434 22.6731 74.8434 20.4542C74.8434 16.0836 78.7701 15.2902 82.4818 15.2902V16.4064C82.4818 18.4101 82.5355 20.0642 81.527 21.8528ZM150.918 28.9801H145.794C145.551 28.9667 145.323 28.8624 145.153 28.688C144.984 28.5136 144.886 28.2818 144.88 28.0388L144.866 1.68098C144.89 1.4385 145.004 1.21384 145.186 1.05182C145.368 0.889801 145.604 0.80233 145.848 0.806864H150.609C150.821 0.812682 151.026 0.888254 151.191 1.02192C151.356 1.15559 151.473 1.33993 151.523 1.5465V5.58086H151.631C153.07 1.97683 155.073 0.25551 158.623 0.25551C159.807 0.196792 160.985 0.45193 162.038 0.995094C163.092 1.53826 163.983 2.35014 164.621 3.34851C165.966 5.47327 165.966 9.01006 165.966 11.5651V28.1598C165.927 28.3936 165.805 28.6055 165.622 28.7563C165.439 28.9071 165.208 28.9866 164.971 28.9801H159.82C159.597 28.9703 159.383 28.8831 159.216 28.7336C159.05 28.584 158.94 28.3812 158.906 28.1598V13.8378C158.906 10.96 159.242 6.75082 155.705 6.75082C155.06 6.77523 154.436 6.98646 153.908 7.35886C153.381 7.73126 152.972 8.24882 152.733 8.84869C152.1 10.4322 151.82 12.1349 151.913 13.8378V28.0388C151.903 28.2944 151.793 28.5359 151.607 28.7117C151.421 28.8875 151.174 28.9838 150.918 28.9801ZM129.28 0.25551C136.905 0.25551 141.02 6.80461 141.02 15.1154C141.02 23.1572 136.475 29.5449 129.28 29.5449C121.803 29.5449 117.715 22.9958 117.715 14.8464C117.715 6.64324 121.844 0.25551 129.28 0.25551ZM129.334 5.63465C125.542 5.63465 125.3 10.7986 125.3 14.0127C125.3 17.2267 125.246 24.0986 129.28 24.0986C133.261 24.0986 133.449 18.558 133.449 15.1826C133.534 12.8268 133.275 10.4713 132.683 8.18973C132.104 6.36082 130.961 5.63465 129.321 5.63465H129.334ZM34.3653 28.9801H29.2283C28.9961 28.9719 28.7746 28.8804 28.6042 28.7224C28.4339 28.5644 28.326 28.3504 28.3003 28.1195V1.76166C28.3003 1.22375 28.7576 0.820317 29.2955 0.820317H34.0829C34.5805 0.833765 34.9839 1.22375 35.0243 1.69442V5.13708H35.1184C36.3556 1.80201 38.709 0.25551 41.8692 0.25551C45.0833 0.25551 47.1004 1.80201 48.5394 5.13708C49.0497 3.67659 50.0115 2.41635 51.2856 1.53875C52.5596 0.661159 54.0799 0.211737 55.6264 0.25551C57.7781 0.25551 60.1314 1.14306 61.5703 3.13335C63.211 5.35224 62.8748 8.57972 62.8748 11.4038V28.0388C62.8748 28.5632 62.4176 28.9801 61.8796 28.9801H56.7426C56.4987 28.9698 56.268 28.8665 56.098 28.6915C55.9279 28.5164 55.8313 28.2828 55.8281 28.0388V14.053C55.8281 12.9503 55.9222 10.18 55.6802 9.13109C55.2902 7.35597 54.1471 6.84495 52.6544 6.84495C51.9878 6.86706 51.3422 7.08385 50.7973 7.4686C50.2525 7.85335 49.8322 8.38922 49.5883 9.01006C49.0504 10.3548 49.1176 12.5603 49.1176 14.0664V28.0388C49.1176 28.5767 48.6738 28.9801 48.1225 28.9801H42.9854C42.7426 28.9667 42.5138 28.8624 42.3444 28.688C42.1749 28.5136 42.0773 28.2818 42.071 28.0388V14.053C42.071 11.1214 42.5416 6.79117 38.8973 6.79117C35.2125 6.79117 35.347 11.0138 35.347 14.053V28.0388C35.3471 28.1659 35.3215 28.2917 35.2717 28.4086C35.2219 28.5255 35.1489 28.6311 35.0572 28.7191C34.9655 28.807 34.8569 28.8755 34.738 28.9204C34.6191 28.9652 34.4923 28.9856 34.3653 28.9801ZM95.9431 5.45982V1.69442C95.9431 1.44476 96.0422 1.20532 96.2188 1.02878C96.3953 0.852248 96.6348 0.753077 96.8844 0.753077H113.788C114.326 0.753077 114.757 1.12961 114.757 1.69442V4.9219C114.757 5.45982 114.299 6.17256 113.493 7.28873L104.751 19.7818C107.979 19.7011 111.422 20.1852 114.38 21.8393C115.039 22.2158 115.214 22.7807 115.268 23.3186V27.3395C115.268 27.8774 114.662 28.5229 114.03 28.2002C111.27 26.7797 108.209 26.041 105.105 26.0457C102 26.0503 98.9415 26.7983 96.1851 28.227C95.6069 28.5363 94.9883 27.9043 94.9883 27.3529V23.5337C94.9883 22.9286 94.9883 21.8797 95.6203 20.9518L105.747 6.41462H96.9248C96.7989 6.41821 96.6736 6.39653 96.5562 6.35084C96.4389 6.30514 96.3319 6.23638 96.2417 6.1486C96.1514 6.06083 96.0796 5.95583 96.0306 5.83983C95.9817 5.72383 95.9565 5.59919 95.9565 5.47327L95.9431 5.45982ZM106.943 34.5206C105.706 32.9472 98.794 33.781 95.6741 34.1441C94.7327 34.2651 94.5983 33.4448 95.4455 32.8397C100.959 28.9667 110.009 30.0828 111.045 31.3873C112.121 32.6917 110.776 41.7556 105.599 46.0858C104.805 46.7582 104.052 46.3951 104.402 45.521C105.572 42.6162 108.167 36.1075 106.943 34.5206ZM102.922 39.1064C93.2804 46.2203 79.3081 49.9991 67.2722 49.9991C51.1909 50.0834 35.6575 44.1607 23.7146 33.391C22.8136 32.5841 23.6205 31.468 24.7098 32.0866C37.9773 39.6732 52.9974 43.66 68.2808 43.6517C78.9719 43.6517 90.7118 41.4328 101.524 36.8471C103.151 36.1747 104.523 37.9229 102.922 39.1064Z" fill="#151515"/>
</svg>
