<svg width="17" height="11" viewBox="0 0 17 11" fill="none" xmlns="http://www.w3.org/2000/svg">
<path fill-rule="evenodd" clip-rule="evenodd" d="M16.618 5.76559C16.7118 5.6689 16.7645 5.53776 16.7645 5.40101C16.7645 5.26427 16.7118 5.13313 16.618 5.03644L12.3754 0.66149C12.2816 0.564798 12.1544 0.510477 12.0218 0.510477C11.8892 0.510477 11.762 0.564798 11.6683 0.661491C11.5745 0.758183 11.5218 0.889326 11.5218 1.02607C11.5218 1.16281 11.5745 1.29396 11.6683 1.39065L15.0574 4.8855L0.708112 4.88477C0.575337 4.88477 0.447999 4.93916 0.354112 5.03598C0.260226 5.13279 0.207481 5.2641 0.207481 5.40102C0.207481 5.53793 0.260226 5.66924 0.354112 5.76605C0.447999 5.86287 0.575336 5.91726 0.708112 5.91726L15.0574 5.91653L11.6683 9.41138C11.5745 9.50807 11.5218 9.63922 11.5218 9.77596C11.5218 9.9127 11.5745 10.0438 11.6683 10.1405C11.762 10.2372 11.8892 10.2916 12.0218 10.2916C12.1544 10.2916 12.2816 10.2372 12.3754 10.1405L16.618 5.76559Z" fill="white"/>
</svg>
