<svg width="22" height="22" viewBox="0 0 22 22" fill="none" xmlns="http://www.w3.org/2000/svg">
<path d="M19.4071 18.0935C19.4121 18.0862 19.4194 18.0788 19.4243 18.0714C21.0326 16.1587 22 13.6935 22 11C22 8.30647 21.0326 5.84129 19.4268 3.92857C19.4219 3.92121 19.4145 3.91629 19.4096 3.90893C19.3826 3.87701 19.358 3.84754 19.331 3.81808C19.3212 3.8058 19.3114 3.79598 19.3016 3.78371L19.2009 3.6683L19.1984 3.66585C19.1616 3.62411 19.1223 3.58237 19.0855 3.54062L19.083 3.53817C19.0045 3.45469 18.9259 3.37121 18.8449 3.29018L18.8424 3.28772L18.7246 3.16987L18.7172 3.1625C18.6804 3.12567 18.6435 3.09129 18.6067 3.05692C18.5944 3.04464 18.5821 3.03237 18.5674 3.02009C18.5429 2.99554 18.5183 2.97344 18.4937 2.95134C18.4864 2.94397 18.4766 2.93661 18.4692 2.92679C16.5098 1.10982 13.885 0 11 0C8.11496 0 5.49018 1.10982 3.52835 2.92679C3.52098 2.93415 3.51116 2.94152 3.50379 2.95134C3.47924 2.97344 3.45469 2.99799 3.43013 3.02254C3.41786 3.03482 3.40558 3.0471 3.39085 3.05938C3.35402 3.09375 3.31719 3.13058 3.28036 3.16496L3.27299 3.17232L3.15513 3.29018L3.15268 3.29263C3.07165 3.37366 2.99308 3.45714 2.91451 3.54062L2.91205 3.54308C2.87277 3.58482 2.83594 3.62656 2.79911 3.6683L2.79665 3.67076C2.76228 3.70759 2.7279 3.74687 2.69598 3.78616C2.68616 3.79844 2.67634 3.80826 2.66652 3.82054C2.63951 3.85 2.61496 3.88192 2.58795 3.91138C2.58304 3.91875 2.57567 3.92366 2.57076 3.93103C0.967411 5.84129 0 8.30647 0 11C0 13.6935 0.967411 16.1587 2.57321 18.0714C2.57813 18.0788 2.58549 18.0862 2.5904 18.0935L2.66652 18.1844C2.67634 18.1967 2.68616 18.2065 2.69598 18.2188L2.79665 18.3342C2.79665 18.3366 2.79911 18.3366 2.79911 18.3391C2.83594 18.3808 2.87277 18.4225 2.91205 18.4618L2.91451 18.4643C2.99308 18.5478 3.07165 18.6312 3.15022 18.7123L3.15268 18.7147C3.19196 18.754 3.22879 18.7933 3.26808 18.8301L3.27545 18.8375C3.35647 18.9185 3.43996 18.9971 3.52344 19.0732C5.49018 20.8902 8.11496 22 11 22C13.885 22 16.5098 20.8902 18.4717 19.0732C18.5553 18.9965 18.6372 18.918 18.7172 18.8375L18.7246 18.8301C18.7638 18.7908 18.8031 18.754 18.84 18.7147L18.8424 18.7123C18.9234 18.6312 19.002 18.5478 19.0781 18.4643L19.0806 18.4618C19.1174 18.4201 19.1567 18.3808 19.1935 18.3391C19.1935 18.3366 19.196 18.3366 19.196 18.3342C19.2304 18.2973 19.2647 18.258 19.2967 18.2188C19.3065 18.2065 19.3163 18.1967 19.3261 18.1844C19.3539 18.1548 19.3809 18.1245 19.4071 18.0935V18.0935ZM19.5078 14.5922C19.169 15.3926 18.7221 16.1342 18.177 16.8069C17.5631 16.2764 16.8919 15.816 16.1759 15.4344C16.4607 14.2828 16.6375 13.0183 16.6842 11.6875H20.2076C20.1339 12.6917 19.8982 13.6665 19.5078 14.5922ZM20.2076 10.3125H16.6842C16.6375 8.9817 16.4607 7.71719 16.1759 6.56562C16.8953 6.18259 17.5656 5.72098 18.177 5.19308C19.3619 6.6515 20.0707 8.43842 20.2076 10.3125V10.3125ZM14.5922 2.49219C15.567 2.90469 16.4533 3.47433 17.2342 4.19129C16.7806 4.57751 16.2923 4.92107 15.7757 5.21763C15.3902 4.11272 14.8967 3.15268 14.3221 2.38415C14.4129 2.41853 14.5038 2.45536 14.5922 2.49219ZM12.3676 19.6944C12.1417 19.8712 11.9158 20.0062 11.6875 20.0971V15.5424C12.6618 15.6104 13.6198 15.8273 14.5283 16.1857C14.3246 16.7897 14.0888 17.3471 13.8163 17.8504C13.3891 18.646 12.8882 19.2819 12.3676 19.6944ZM13.8163 4.14955C14.0864 4.65536 14.3246 5.21272 14.5283 5.81429C13.6198 6.17266 12.6618 6.38962 11.6875 6.45759V1.90536C11.9134 1.99621 12.1417 2.12879 12.3676 2.30804C12.8882 2.71808 13.3891 3.35402 13.8163 4.14955V4.14955ZM11.6875 14.165V11.6875H15.3092C15.2699 12.7728 15.1348 13.8261 14.9089 14.8254L14.9016 14.8549C13.8711 14.4642 12.7875 14.2315 11.6875 14.165V14.165ZM11.6875 10.3125V7.83504C12.8121 7.76629 13.8924 7.52812 14.9016 7.14509L14.9089 7.17455C15.1348 8.17388 15.2699 9.22478 15.3092 10.3125H11.6875ZM10.3125 11.6875V14.165C9.18795 14.2337 8.10759 14.4719 7.09844 14.8549L7.09107 14.8254C6.86518 13.8261 6.73013 12.7752 6.69085 11.6875H10.3125ZM6.69085 10.3125C6.73013 9.22723 6.86518 8.17388 7.09107 7.17455L7.09844 7.14509C8.10759 7.52812 9.18549 7.76629 10.3125 7.83504V10.3125H6.69085ZM10.3125 15.5424V20.0946C10.0866 20.0038 9.85826 19.8712 9.63237 19.692C9.11183 19.2819 8.60848 18.6435 8.18125 17.848C7.91116 17.3422 7.67299 16.7848 7.4692 16.1833C8.38259 15.8248 9.33281 15.6112 10.3125 15.5424ZM10.3125 6.45759C9.33824 6.38962 8.38015 6.17266 7.47165 5.81429C7.67545 5.21027 7.91116 4.6529 8.18371 4.14955C8.61094 3.35402 9.11183 2.71562 9.63482 2.30558C9.86071 2.12879 10.0866 1.99375 10.315 1.9029V6.45759H10.3125ZM7.40781 2.49219C7.49866 2.45536 7.58705 2.41853 7.6779 2.38415C7.10335 3.15268 6.60982 4.11272 6.22433 5.21763C5.70871 4.92299 5.22009 4.57924 4.76585 4.19129C5.54665 3.47433 6.43304 2.90469 7.40781 2.49219V2.49219ZM2.49219 7.40781C2.83103 6.60737 3.2779 5.86585 3.82299 5.19308C4.43437 5.72098 5.10469 6.18259 5.82411 6.56562C5.53929 7.71719 5.3625 8.9817 5.31585 10.3125H1.79241C1.86607 9.30826 2.10179 8.33348 2.49219 7.40781ZM1.79241 11.6875H5.31585C5.3625 13.0183 5.53929 14.2828 5.82411 15.4344C5.10808 15.816 4.43688 16.2764 3.82299 16.8069C2.63811 15.3485 1.92934 13.5616 1.79241 11.6875V11.6875ZM7.40781 19.5078C6.43304 19.0953 5.54665 18.5257 4.76585 17.8087C5.22009 17.4208 5.70871 17.0795 6.22433 16.7824C6.60982 17.8873 7.10335 18.8473 7.6779 19.6158C7.58705 19.5815 7.49621 19.5446 7.40781 19.5078ZM14.5922 19.5078C14.5013 19.5446 14.4129 19.5815 14.3221 19.6158C14.8967 18.8473 15.3902 17.8873 15.7757 16.7824C16.2913 17.077 16.7799 17.4208 17.2342 17.8087C16.4577 18.5227 15.5639 19.0975 14.5922 19.5078V19.5078Z" fill="#151515"/>
</svg>
