<svg width="137" height="46" viewBox="0 0 137 46" fill="none" xmlns="http://www.w3.org/2000/svg">
<path d="M18.3552 35.2181C8.8782 35.2181 0.911621 27.5041 0.911621 18.0271C0.911621 8.5501 8.8782 0.83605 18.3552 0.83605C22.7599 0.766132 27.0072 2.47328 30.1383 5.57216L26.803 8.90746C24.5285 6.72357 21.4843 5.52507 18.3314 5.57216C11.5254 5.70507 6.07757 11.2604 6.07757 18.0676C6.07757 24.8748 11.5254 30.4301 18.3314 30.563C22.8197 30.563 25.3736 28.762 27.0127 27.1229C28.3563 25.7793 29.233 23.8543 29.5713 21.2099H18.4028V16.4833H34.1645C34.3429 17.4513 34.4275 18.4342 34.417 19.4184C34.417 22.9395 33.4641 27.2992 30.3479 30.4058C27.3319 33.541 23.4725 35.2181 18.3552 35.2181Z" fill="#151515"/>
<path d="M58.0688 24.1447C58.0726 28.6262 55.376 32.6686 51.2368 34.3862C47.0976 36.1039 42.3312 35.1584 39.1609 31.9909C35.9907 28.8234 35.0412 24.0578 36.7553 19.9171C38.4694 15.7764 42.5094 13.0763 46.9908 13.0763C49.9401 13.0336 52.7813 14.1857 54.8679 16.2705C56.9545 18.3553 58.109 21.1954 58.0688 24.1447ZM53.2183 24.1447C53.2183 20.1615 50.3357 17.436 46.9908 17.436C43.646 17.436 40.7634 20.1615 40.7634 24.1447C40.7634 28.128 43.646 30.8534 46.9908 30.8534C50.3357 30.8534 53.2183 28.0899 53.2183 24.1447Z" fill="#151515"/>
<path d="M82.4025 24.1447C82.4199 28.6426 79.7237 32.7073 75.5731 34.4407C71.4225 36.174 66.6363 35.234 63.4496 32.0596C60.2629 28.8852 59.3044 24.1027 61.0217 19.9454C62.739 15.7881 66.7932 13.0763 71.2912 13.0763C74.2431 13.035 77.0868 14.1865 79.1783 16.27C81.2698 18.3535 82.4323 21.1926 82.4025 24.1447ZM77.5377 24.1447C77.5377 20.1614 74.6456 17.436 71.2912 17.436C67.9369 17.436 65.0447 20.1614 65.0447 24.1447C65.0447 28.128 67.9369 30.8534 71.2912 30.8534C74.6456 30.8534 77.5377 28.0898 77.5377 24.1447Z" fill="#151515"/>
<path d="M105.597 13.748V33.6359C105.597 41.8121 100.776 45.1664 95.0722 45.1664C90.7748 45.1877 86.8941 42.5999 85.2617 38.6245L89.4975 36.8616C90.2503 38.6626 92.099 40.802 95.0722 40.802C98.722 40.802 100.985 38.5387 100.985 34.3029V32.6829H100.818C99.3402 34.3372 97.209 35.2573 94.9912 35.1987C89.4546 35.1987 84.3945 30.3768 84.3945 24.1732C84.3945 17.9695 89.4546 13.0619 94.9912 13.0619C97.1983 13.0077 99.3217 13.9071 100.818 15.53H100.985V13.748H105.597ZM101.309 24.1875C101.309 20.2899 98.7077 17.4359 95.3962 17.4359C92.0848 17.4359 89.2307 20.2947 89.2307 24.1875C89.2307 28.0802 92.0419 30.858 95.3962 30.858C98.7506 30.858 101.319 28.0469 101.319 24.1875H101.309Z" fill="#151515"/>
<path d="M113.416 2.14648V34.5465H108.58V2.14648H113.416Z" fill="#151515"/>
<path d="M132.031 27.7945L135.805 30.3102C133.752 33.3937 130.285 35.2379 126.581 35.2179C120.291 35.2179 115.593 30.3531 115.593 24.1495C115.593 17.5646 120.329 13.0811 126.033 13.0811C131.736 13.0811 134.609 17.6504 135.51 20.1233L136.015 21.3812L121.216 27.5038C122.35 29.7242 124.108 30.8391 126.581 30.8391C129.054 30.8391 130.778 29.6384 132.031 27.7945ZM120.415 23.8112L130.311 19.704C129.768 18.3222 128.129 17.355 126.204 17.355C124.576 17.4296 123.047 18.1558 121.959 19.3701C120.872 20.5844 120.319 22.1848 120.425 23.8112H120.415Z" fill="#151515"/>
</svg>
