<svg width="51" height="50" viewBox="0 0 51 50" fill="none" xmlns="http://www.w3.org/2000/svg">
<path d="M19.1187 10.7875L19.1257 10.7903C19.2709 10.175 19.7985 9.72222 20.4587 9.72222H39.2634C39.2871 9.72222 39.3108 9.7125 39.3346 9.71389C38.934 3.07639 33.3381 0 28.401 0H9.59635C8.93473 0 8.4071 0.465278 8.26333 1.07917L8.25635 1.07639L0.0362917 38.6292L0.0544375 38.6306C0.0348959 38.7195 0 38.8042 0 38.9C0 39.6681 0.623937 40.2764 1.39583 40.2764H12.6616L19.1187 10.7875Z" fill="#2E2E2E"/>
<path d="M39.3351 9.71387C39.409 10.9305 39.3281 12.2541 39.0154 13.7166C37.2274 22.043 30.7633 26.3764 22.7749 26.3764C22.7749 26.3764 17.9314 26.3764 16.7547 26.3764C16.0274 26.3764 15.6841 26.8014 15.5263 27.1264L13.0976 38.3055L12.6719 40.2903H12.6635L10.9005 48.3403L10.9187 48.3417C10.8992 48.4305 10.8643 48.5153 10.8643 48.6111C10.8643 49.3792 11.4882 50 12.2601 50H22.4957L22.5139 49.9861C23.1727 49.9764 23.6962 49.5083 23.8329 48.8917L23.8581 48.8708L26.3873 37.1819C26.3873 37.1819 26.5632 36.0666 27.7413 36.0666C28.9194 36.0666 33.5731 36.0666 33.5731 36.0666C41.5614 36.0666 48.0911 31.7528 49.8806 23.425C51.8934 14.0361 45.1627 9.74859 39.3351 9.71387Z" fill="#151515"/>
<path d="M20.4587 9.72229C19.7971 9.72229 19.2694 10.1751 19.1257 10.7903L19.1187 10.7876L15.5244 27.1278C15.6821 26.8028 16.0255 26.3778 16.7527 26.3778C17.9308 26.3778 22.6641 26.3778 22.6641 26.3778C30.6525 26.3778 37.2254 22.0445 39.0135 13.7181C39.3276 12.2556 39.4071 10.932 39.3331 9.71534C39.3108 9.71257 39.2857 9.72229 39.2634 9.72229H20.4587Z" fill="#2E2E2E"/>
</svg>
