<svg width="171" height="44" viewBox="0 0 171 44" fill="none" xmlns="http://www.w3.org/2000/svg">
<path d="M55.3529 17.3231C55.3529 14.2614 52.3756 11.0098 47.2239 11.0098C41.4386 11.0098 35.0833 15.2538 34.1119 23.7204C33.1196 32.2718 38.4403 36.0724 43.8033 36.0724C49.1666 36.0724 51.9746 33.9821 54.8463 31.1951C52.3756 28.0911 49.1876 29.5271 48.5753 29.8438C47.8996 30.1814 47.0339 30.6461 45.2603 30.6461C43.1909 30.6461 41.0796 29.7171 41.0796 25.8531C54.3396 24.5441 55.3529 20.3844 55.3529 17.3231ZM48.7863 17.8298C48.7019 18.7798 48.3219 20.4058 41.6076 21.3134C43.0223 16.2884 45.7246 15.9084 46.9706 15.9084C48.1319 15.9084 48.8706 16.8161 48.7863 17.8298ZM26.3206 18.6531C26.3206 18.6531 23.4706 27.6054 23.2379 28.3444C23.1536 27.5844 21.0633 11.5164 21.0633 11.5164C16.2069 11.5164 13.6099 14.9791 12.2376 18.6321C12.2376 18.6321 8.77463 27.6054 8.4793 28.3654C8.45796 27.6688 7.9513 18.7378 7.9513 18.7378C7.65563 14.2611 3.55963 11.5378 0.244629 11.5378L4.2563 35.8824C9.34496 35.8614 12.0896 32.4198 13.5256 28.7668C13.5256 28.7668 16.5869 20.8491 16.7136 20.4901C16.7349 20.8278 18.9096 35.8824 18.9096 35.8824C24.0193 35.8824 26.7643 32.6518 28.2423 29.1258L35.3999 11.5378C30.3533 11.5378 27.6933 14.9791 26.3206 18.6531ZM74.1023 10.9674C70.9563 10.9674 68.5493 12.6778 66.5223 15.1904V15.1694L68.3383 0.537109C64.1576 0.537109 60.7583 4.16878 60.1036 9.57378L56.9363 35.6924C59.3436 35.6924 61.8983 34.9958 63.2706 33.2221C64.4953 34.8054 66.3323 36.0724 69.0559 36.0724C76.1083 36.0724 80.9433 27.8801 80.9433 20.1944C80.9013 13.1844 77.5016 10.9678 74.1023 10.9678V10.9674ZM73.4479 23.5308C72.7089 27.8168 70.3229 30.7308 68.0213 30.7308C65.6989 30.7308 64.7066 29.6958 64.7066 29.6958C65.1499 25.9374 65.4243 23.6361 66.2689 21.6514C67.1136 19.6668 69.1193 16.4994 71.2096 16.4994C73.2576 16.4994 74.1869 19.2231 73.4479 23.5304V23.5308ZM98.5526 11.5371H93.6329L93.6543 11.2838C93.9919 8.07444 94.7519 6.38544 97.2646 6.11111C98.9749 5.94211 99.7349 5.05511 99.9249 4.08411C100.073 3.32411 100.538 0.684442 100.538 0.684442C90.6559 0.621109 87.5523 4.88644 86.7499 11.3894L86.7286 11.5374H86.6229C85.0183 11.5374 83.2449 13.3531 82.9493 15.6544L82.8436 16.4991H86.1376L83.3716 39.3448L82.5269 43.4411C82.6326 43.4411 82.7593 43.4621 82.8646 43.4621C87.4889 43.2931 90.4446 39.6404 91.0993 34.3408L93.2529 16.4991H94.7943C96.3143 16.4991 98.0883 14.9791 98.4049 12.4451L98.5526 11.5374V11.5371ZM124.144 11.1151C118.464 11.1151 113.101 15.2958 111.454 21.8621C109.807 28.4288 112.298 36.1988 120.66 36.1988C129 36.1988 133.814 28.1121 133.814 21.3764C133.814 14.6831 129.274 11.1151 124.144 11.1151ZM126.445 23.3191C126.149 26.2961 124.84 30.8148 121.251 30.8148C117.64 30.8148 118.147 25.5361 118.506 23.0234C118.886 20.3421 120.385 16.5201 123.616 16.5201C126.508 16.5201 126.783 19.9618 126.445 23.3191ZM161.875 18.6528C161.875 18.6528 159.024 27.6051 158.792 28.3441C158.708 27.5841 156.617 11.5161 156.617 11.5161C151.761 11.5161 149.164 14.9788 147.792 18.6318C147.792 18.6318 144.329 27.6051 144.033 28.3651C144.012 27.6684 143.505 18.7374 143.505 18.7374C143.21 14.2608 139.114 11.5374 135.799 11.5374L139.789 35.8821C144.878 35.8611 147.623 32.4194 149.058 28.7664C149.058 28.7664 152.12 20.8488 152.226 20.4898C152.247 20.8274 154.421 35.8821 154.421 35.8821C159.531 35.8821 162.276 32.6514 163.754 29.1254L170.912 11.5378C165.886 11.5378 163.226 14.9791 161.875 18.6531V18.6528ZM103.198 0.684776L99.0593 34.0664L98.2149 38.1838C98.3203 38.1838 98.4469 38.2051 98.5526 38.2051C103.008 38.1418 106.175 34.2354 106.766 29.3158L109.152 10.1651C109.87 4.31644 106.386 0.685109 103.198 0.685109V0.684776Z" fill="#151515"/>
</svg>
